Coordinates
version=1
nRows=18
nColumns=38
inDegrees=yes

Units are S.I. units (second, meters, Newtons, ...)
If the header above contains a line with 'inDegrees', this indicates whether rotational values are in degrees (yes) or radians (no).

endheader
time	pelvis_tilt	pelvis_list	pelvis_rotation	pelvis_tx	pelvis_ty	pelvis_tz	hip_flexion_r	hip_adduction_r	hip_rotation_r	knee_angle_r	ankle_angle_r	subtalar_angle_r	mtp_angle_r	hip_flexion_l	hip_adduction_l	hip_rotation_l	knee_angle_l	ankle_angle_l	subtalar_angle_l	mtp_angle_l	lumbar_extension	lumbar_bending	lumbar_rotation	arm_flex_r	arm_add_r	arm_rot_r	elbow_flex_r	pro_sup_r	wrist_flex_r	wrist_dev_r	arm_flex_l	arm_add_l	arm_rot_l	elbow_flex_l	pro_sup_l	wrist_flex_l	wrist_dev_l
      0.57000000	      3.57467141	      5.01822029	    -86.38920106	      0.23207015	      0.90210382	     -0.65129014	     33.30164179	     -3.28985495	     -6.17298963	     -2.56188201	      4.13981267	      0.00000000	      0.00000000	    -11.05702670	      8.75928460	      3.54795538	     -0.59589211	      7.23172375	      0.00000000	      0.00000000	     -1.71079941	     -2.72159935	    -12.96876237	     -5.74987944	     -8.95817096	    -11.61291446	     24.93555110	     86.39587240	      0.00000000	      0.00000000	     10.61505177	    -16.77026764	     -5.20725621	     41.47963091	     84.61771435	      0.00000000	      0.00000000
      0.58000000	      3.51373851	      5.02460089	    -86.24127956	      0.23207064	      0.89981893	     -0.63672692	     33.47737057	     -3.11760604	     -6.85649205	     -2.29323853	      4.30550996	      0.00000000	      0.00000000	    -11.92536781	      8.56147528	      3.83041127	     -0.89125919	      7.68890507	      0.00000000	      0.00000000	     -1.58356397	     -2.60804447	    -13.10271877	     -5.90643565	     -8.94922535	    -11.73180395	     24.63851491	     86.34183025	      0.00000000	      0.00000000	     10.74610541	    -16.71281859	     -5.28876916	     41.62454182	     84.70147697	      0.00000000	      0.00000000
      0.59000000	      3.52932249	      5.10917114	    -86.21377390	      0.23185480	      0.89756964	     -0.62211982	     33.72345837	     -2.96016589	     -6.93964311	     -2.36503678	      4.28549965	      0.00000000	      0.00000000	    -12.60932626	      8.46096165	      3.87704599	     -1.34208860	      7.73982324	      0.00000000	      0.00000000	     -1.36137544	     -2.59186785	    -13.16175647	     -6.10431336	     -8.93202606	    -11.74286941	     24.49904075	     86.33840449	      0.00000000	      0.00000000	     10.78639536	    -16.70056440	     -5.30381530	     41.67543801	     84.70816481	      0.00000000	      0.00000000
      0.60000000	      3.19645985	      5.03126738	    -86.10431830	      0.23169571	      0.89580684	     -0.60730668	     33.84393795	     -2.55293091	     -7.69012787	     -2.89362862	      4.07979614	      0.00000000	      0.00000000	    -13.30538363	      7.97433104	      4.07785913	     -2.06691889	      8.18905001	      0.00000000	      0.00000000	     -1.32234195	     -2.15155556	    -13.17435137	     -6.17458747	     -8.96888729	    -11.80283976	     24.09245658	     86.31992429	      0.00000000	      0.00000000	     10.83796915	    -16.50476782	     -5.35622161	     41.78582127	     84.74480935	      0.00000000	      0.00000000
      0.61000000	      2.99843458	      4.98008422	    -86.05107658	      0.23143712	      0.89420138	     -0.59244233	     33.97679964	     -2.25780477	     -7.77648250	     -3.72951589	      3.77250815	      0.00000000	      0.00000000	    -13.86715152	      7.63636761	      4.20083671	     -2.97484551	      8.19124810	      0.00000000	      0.00000000	     -1.23798754	     -1.87366986	    -13.20260761	     -6.23102385	     -8.98357104	    -11.82635919	     23.88417164	     86.31531431	      0.00000000	      0.00000000	     10.79640574	    -16.40222101	     -5.38490107	     41.77040327	     84.75806005	      0.00000000	      0.00000000
      0.62000000	      2.70549686	      4.88997068	    -85.99944192	      0.23115163	      0.89288780	     -0.57743853	     34.08146394	     -1.89938002	     -7.96986158	     -4.87244349	      3.25144703	      0.00000000	      0.00000000	    -14.29636581	      7.20273445	      4.22961376	     -4.16220628	      8.11663518	      0.00000000	      0.00000000	     -1.18576852	     -1.47635249	    -13.18872954	     -6.27207784	     -9.00591700	    -11.84438681	     23.59338132	     86.31329514	      0.00000000	      0.00000000	     10.72344503	    -16.22117109	     -5.41996283	     41.70817439	     84.77109004	      0.00000000	      0.00000000
      0.63000000	      2.38342077	      4.75714196	    -85.95890112	      0.23079841	      0.89188290	     -0.56236223	     34.17513362	     -1.52355713	     -8.00962825	     -6.32084052	      2.60649630	      0.00000000	      0.00000000	    -14.60002193	      6.73618271	      4.24067405	     -5.62340430	      7.83841651	      0.00000000	      0.00000000	     -1.18489141	     -1.07952850	    -13.16188742	     -6.25941823	     -9.05549294	    -11.85618416	     23.34100036	     86.31394742	      0.00000000	      0.00000000	     10.61202256	    -16.01414693	     -5.44390326	     41.58860975	     84.78069665	      0.00000000	      0.00000000
      0.64000000	      1.98849519	      4.73255872	    -85.90710540	      0.23049440	      0.89099893	     -0.54706014	     34.31903379	     -1.12491359	     -8.29221312	     -7.83588138	      1.41873814	      0.00000000	      0.00000000	    -14.53495335	      6.17945392	      3.73520907	     -7.48962701	      7.19882818	      0.00000000	      0.00000000	     -0.97802893	     -0.57553571	    -13.15240143	     -6.13087278	     -9.06974938	    -11.86600215	     22.67855291	     86.33147343	      0.00000000	      0.00000000	     10.46238646	    -15.64767975	     -5.71149307	     41.13125132	     84.81544300	      0.00000000	      0.00000000
      0.65000000	      1.71985989	      4.58843379	    -85.87947311	      0.23014559	      0.89051392	     -0.53184221	     34.40052671	     -0.83345888	     -8.18062653	     -9.63883978	      0.52463203	      0.00000000	      0.00000000	    -14.41544030	      5.74967850	      3.41144661	     -9.63864594	      6.23743283	      0.00000000	      0.00000000	     -0.96892413	     -0.22034349	    -13.06958655	     -6.10336571	     -9.09690668	    -11.85773648	     22.38515137	     86.34914001	      0.00000000	      0.00000000	     10.29104233	    -15.36425731	     -5.83500293	     40.82612283	     84.84628648	      0.00000000	      0.00000000
      0.66000000	      1.46429771	      4.43757102	    -85.87114602	      0.22978693	      0.89027556	     -0.51653444	     34.45052538	     -0.53768785	     -7.93967736	    -11.52203932	     -0.37608120	      0.00000000	      0.00000000	    -14.10542577	      5.32726181	      3.05097888	    -12.09666485	      4.95844078	      0.00000000	      0.00000000	     -0.96093742	      0.12712841	    -12.97522002	     -6.06529729	     -9.11593038	    -11.82613257	     22.13257585	     86.36737992	      0.00000000	      0.00000000	     10.06657158	    -15.06495408	     -5.91093755	     40.45737203	     84.87626558	      0.00000000	      0.00000000
      0.67000000	      1.22619568	      4.30478094	    -85.87676961	      0.22935018	      0.89026445	     -0.50122620	     34.49807840	     -0.24323385	     -7.63668839	    -13.44633124	     -1.25730709	      0.00000000	      0.00000000	    -13.54422009	      4.89486889	      2.57521246	    -14.89486714	      3.28941497	      0.00000000	      0.00000000	     -0.92847018	      0.44534422	    -12.85975417	     -6.01038271	     -9.14447736	    -11.77197600	     21.89035480	     86.38790151	      0.00000000	      0.00000000	      9.81190290	    -14.76262024	     -5.97429597	     40.00487318	     84.90957611	      0.00000000	      0.00000000
      0.68000000	      1.03221883	      4.32190012	    -85.89791789	      0.22892333	      0.89026231	     -0.48602875	     34.68510969	      0.02345167	     -7.20881545	    -15.38298593	     -2.02970581	      0.00000000	      0.00000000	    -12.57238054	      4.50947351	      2.10707769	    -18.06174510	      1.32218818	      0.00000000	      0.00000000	     -0.72365564	      0.69293535	    -12.70445737	     -5.93070636	     -9.16554042	    -11.62988377	     21.61188498	     86.41835525	      0.00000000	      0.00000000	      9.58739575	    -14.39207826	     -6.12192943	     39.35466658	     84.98506266	      0.00000000	      0.00000000
      0.69000000	      0.83819369	      4.02710187	    -85.88858695	      0.22847578	      0.89098115	     -0.47080683	     34.43713986	      0.30009286	     -6.92158765	    -17.17474673	     -2.60623326	      0.00000000	      0.00000000	    -11.72410660	      4.04833204	      1.58556202	    -21.49841614	     -0.88445265	      0.00000000	      0.00000000	     -0.90626446	      0.95934513	    -12.59417260	     -5.83774052	     -9.17220702	    -11.56345874	     21.52878235	     86.42919709	      0.00000000	      0.00000000	      9.25403394	    -14.13846345	     -6.09162570	     38.94209635	     85.01373809	      0.00000000	      0.00000000
      0.70000000	      0.56221690	      3.96651029	    -85.91359515	      0.22785836	      0.89155712	     -0.45567911	     34.39778242	      0.69748538	     -6.54892521	    -18.90031297	     -3.08934867	      0.00000000	      0.00000000	    -10.41448680	      3.48271676	      1.02929376	    -25.18530110	     -3.48364319	      0.00000000	      0.00000000	     -0.80351014	      1.28513714	    -12.40959634	     -5.74875436	     -9.18027626	    -11.44436086	     21.39529100	     86.44796127	      0.00000000	      0.00000000	      8.91926628	    -13.84003397	     -6.04665073	     38.35142890	     85.05165016	      0.00000000	      0.00000000
      0.71000000	      0.35166030	      3.80957608	    -85.92043358	      0.22729608	      0.89250864	     -0.44077213	     34.14646804	      1.02953215	     -6.25957004	    -20.42043409	     -3.32705508	      0.00000000	      0.00000000	     -8.98449030	      2.95072148	      0.54815552	    -29.13592223	     -5.94360999	      0.00000000	      0.00000000	     -0.84949359	      1.54034552	    -12.24544176	     -5.61100629	     -9.14429381	    -11.32794346	     21.34877280	     86.46458393	      0.00000000	      0.00000000	      8.57208186	    -13.56303781	     -5.97418374	     37.78701372	     85.08244152	      0.00000000	      0.00000000
      0.72000000	      0.05808532	      3.77122761	    -85.92399489	      0.22662408	      0.89343629	     -0.42606480	     33.94362053	      1.46399010	     -5.99201312	    -21.78468298	     -3.40242708	      0.00000000	      0.00000000	     -7.22968279	      2.30973251	      0.13136061	    -33.28370488	     -8.42987701	      0.00000000	      0.00000000	     -0.76817703	      1.85454007	    -12.04191370	     -5.48662706	     -9.18535710	    -11.19668919	     21.31358328	     86.48271046	      0.00000000	      0.00000000	      8.22776242	    -13.30811187	     -5.88402997	     37.14932038	     85.11651141	      0.00000000	      0.00000000
      0.73000000	     -0.23702962	      3.71377667	    -85.92752055	      0.22593684	      0.89459563	     -0.41159932	     33.61071263	      1.90267557	     -5.80362327	    -22.93649961	     -3.29041630	      0.00000000	      0.00000000	     -5.35528552	      1.64782755	     -0.21059014	    -37.49424127	    -10.61939962	      0.00000000	      0.00000000	     -0.74161961	      2.16854165	    -11.83921924	     -5.31762910	     -9.17243224	    -11.06075465	     21.34818744	     86.50036787	      0.00000000	      0.00000000	      7.87788878	    -13.05373740	     -5.76996140	     36.53106697	     85.14803275	      0.00000000	      0.00000000
      0.74000000	     -0.62294723	      3.79884270	    -85.94409773	      0.22517773	      0.89564374	     -0.39738370	     33.34848713	      2.44976909	     -5.63826914	    -23.91722126	     -3.05170973	      0.00000000	      0.00000000	     -3.20437275	      0.92544712	     -0.38747554	    -41.73714160	    -12.45850001	      0.00000000	      0.00000000	     -0.55932363	      2.55580099	    -11.58205532	     -5.15600405	     -9.19365131	    -10.88713595	     21.42097321	     86.52036726	      0.00000000	      0.00000000	      7.52771013	    -12.78018386	     -5.61932770	     35.83317891	     85.18545081	      0.00000000	      0.00000000
